<svg width="36" height="36" viewBox="0 0 36 36" fill="none" xmlns="http://www.w3.org/2000/svg">
<rect width="36" height="36" rx="18" fill="black"/>
<g clip-path="url(#clip0_2218_3026)">
<path d="M13.1272 17.9956C14.991 17.9956 16.5019 16.4847 16.5019 14.6208C16.5019 12.757 14.991 11.2461 13.1272 11.2461C11.2634 11.2461 9.75244 12.757 9.75244 14.6208C9.75244 16.4847 11.2634 17.9956 13.1272 17.9956Z" fill="white"/>
<path d="M16.9685 19.871C15.6486 19.2008 14.1918 18.9336 13.125 18.9336C11.0355 18.9336 6.75049 20.2151 6.75049 22.7771V24.7457H13.7812V23.9924C13.7812 23.1019 14.1562 22.209 14.8124 21.4647C15.3359 20.8703 16.069 20.3186 16.9685 19.871Z" fill="white"/>
<path d="M21.9379 19.4961C19.4973 19.4961 14.626 21.0035 14.626 23.9958V26.2456H29.2499V23.9958C29.2499 21.0035 24.3785 19.4961 21.9379 19.4961Z" fill="white"/>
<path d="M21.9382 17.9955C24.2162 17.9955 26.0629 16.1488 26.0629 13.8708C26.0629 11.5928 24.2162 9.74609 21.9382 9.74609C19.6602 9.74609 17.8135 11.5928 17.8135 13.8708C17.8135 16.1488 19.6602 17.9955 21.9382 17.9955Z" fill="white"/>
</g>
<defs>
<clipPath id="clip0_2218_3026">
<rect width="23.9982" height="23.9982" fill="white" transform="translate(6 6)"/>
</clipPath>
</defs>
</svg>
