<svg width="36" height="36" viewBox="0 0 36 36" fill="none" xmlns="http://www.w3.org/2000/svg">
<rect width="36" height="36" rx="18" fill="white"/>
<path d="M26.5 17H25V13C25 11.89 24.1 11 23 11H19V9.5C19 8.83696 18.7366 8.20107 18.2678 7.73223C17.7989 7.26339 17.163 7 16.5 7C15.837 7 15.2011 7.26339 14.7322 7.73223C14.2634 8.20107 14 8.83696 14 9.5V11H10C9.46957 11 8.96086 11.2107 8.58579 11.5858C8.21071 11.9609 8 12.4696 8 13V16.8H9.5C11 16.8 12.2 18 12.2 19.5C12.2 21 11 22.2 9.5 22.2H8V26C8 26.5304 8.21071 27.0391 8.58579 27.4142C8.96086 27.7893 9.46957 28 10 28H13.8V26.5C13.8 25 15 23.8 16.5 23.8C18 23.8 19.2 25 19.2 26.5V28H23C23.5304 28 24.0391 27.7893 24.4142 27.4142C24.7893 27.0391 25 26.5304 25 26V22H26.5C27.163 22 27.7989 21.7366 28.2678 21.2678C28.7366 20.7989 29 20.163 29 19.5C29 18.837 28.7366 18.2011 28.2678 17.7322C27.7989 17.2634 27.163 17 26.5 17Z" fill="black"/>
</svg>
