<svg width="36" height="36" viewBox="0 0 36 36" fill="none" xmlns="http://www.w3.org/2000/svg">
<rect width="36" height="36" rx="18" fill="black"/>
<path d="M15.5 16C17.433 16 19 14.433 19 12.5C19 10.567 17.433 9 15.5 9C13.567 9 12 10.567 12 12.5C12 14.433 13.567 16 15.5 16Z" stroke="white" stroke-width="2" stroke-linejoin="round"/>
<path d="M24.5 21V26" stroke="white" stroke-width="2" stroke-linecap="round" stroke-linejoin="round"/>
<path d="M26.5 23L24.5 21L22.5 23" stroke="white" stroke-width="2" stroke-linecap="round" stroke-linejoin="round"/>
<path d="M19.5 20H15.4C13.1598 20 12.0397 20 11.1841 20.436C10.4314 20.8195 9.81947 21.4314 9.43598 22.184C9 23.0397 9 24.1598 9 26.4V27H19.5" stroke="white" stroke-width="2" stroke-linecap="round" stroke-linejoin="round"/>
</svg>
