<svg width="36" height="36" viewBox="0 0 36 36" fill="none" xmlns="http://www.w3.org/2000/svg">
<rect width="36" height="36" rx="18" fill="white"/>
<g clip-path="url(#clip0_2218_3011)">
<path d="M18 6.375C11.3724 6.375 6 11.5795 6 18C6 24.4205 11.3724 29.625 18 29.625C24.6276 29.625 30 24.4205 30 18C30 11.5795 24.6276 6.375 18 6.375ZM21.9818 23.1375C21.7931 23.3194 21.5952 23.5102 21.4345 23.6663C21.2898 23.8069 21.1877 23.9803 21.136 24.1683C21.0629 24.4336 21.0039 24.7017 20.9052 24.9591L20.0637 27.1552C19.3979 27.2958 18.7089 27.375 18 27.375V26.0916C18.0818 25.5 17.6303 24.3919 16.905 23.6892C16.6147 23.408 16.4516 23.0264 16.4516 22.6284V21.128C16.4516 20.5823 16.1482 20.0808 15.6552 19.8169C14.9598 19.4442 13.9708 18.9234 13.2934 18.593C12.7379 18.322 12.224 17.977 11.7619 17.5734L11.7232 17.5397C11.3928 17.2507 11.0994 16.9243 10.8494 16.5675C10.3955 15.922 9.65613 14.8603 9.17564 14.1703C10.1661 12.0375 11.9511 10.3247 14.1692 9.39422L15.331 9.95719C15.8458 10.2066 16.4516 9.84422 16.4516 9.28641V8.75672C16.8382 8.69625 17.2316 8.65781 17.6318 8.64328L19.0011 9.96984C19.3035 10.2628 19.3035 10.7377 19.0011 11.0306L18.7742 11.25L18.2739 11.7347C18.1229 11.8809 18.1229 12.1186 18.2739 12.2648L18.5008 12.4847C18.6518 12.6309 18.6518 12.8686 18.5008 13.0148L18.1137 13.3898C18.041 13.4601 17.9425 13.4996 17.8398 13.4995H17.4048C17.3042 13.4995 17.2074 13.5375 17.1348 13.6059L16.6548 14.0583C16.596 14.1138 16.5569 14.186 16.5431 14.2644C16.5294 14.3428 16.5417 14.4235 16.5784 14.4947L17.3327 15.9567C17.4615 16.2061 17.2742 16.4995 16.9868 16.4995H16.7139C16.6205 16.4995 16.5305 16.4667 16.4603 16.4077L16.0113 16.0298C15.9097 15.9444 15.7869 15.8861 15.6549 15.8607C15.523 15.8352 15.3865 15.8434 15.2589 15.8845L13.7506 16.3716C13.6355 16.4088 13.5354 16.4801 13.4644 16.5755C13.3934 16.6709 13.3553 16.7855 13.3553 16.9031C13.3553 17.1155 13.4792 17.3091 13.6752 17.4042L14.2113 17.6639C14.6666 17.8847 15.1689 17.9995 15.6779 17.9995C16.1869 17.9995 16.771 19.2787 17.2263 19.4995H20.4561C20.8669 19.4995 21.2603 19.6575 21.5511 19.9387L22.2135 20.5805C22.4903 20.8487 22.6457 21.2124 22.6456 21.5916C22.6455 21.8789 22.5868 22.1634 22.4729 22.4287C22.359 22.694 22.1921 22.9349 21.9818 23.1375ZM26.1774 18.8555C25.8973 18.7875 25.6529 18.6211 25.4927 18.3881L24.6227 17.1239C24.4954 16.9392 24.4275 16.7221 24.4275 16.5C24.4275 16.2779 24.4954 16.0608 24.6227 15.8761L25.5706 14.4989C25.6829 14.3362 25.8368 14.2041 26.0177 14.1169L26.6458 13.8127C27.3 15.0745 27.6774 16.4939 27.6774 18C27.6774 18.4064 27.6416 18.8044 27.5894 19.1972L26.1774 18.8555Z" fill="black"/>
</g>
<defs>
<clipPath id="clip0_2218_3011">
<rect width="24" height="24" fill="white" transform="translate(6 6)"/>
</clipPath>
</defs>
</svg>
